<svg width="458" height="86" viewBox="0 0 458 86" fill="none" xmlns="http://www.w3.org/2000/svg">
<mask id="path-1-outside-1_2_2" maskUnits="userSpaceOnUse" x="-1" y="-1" width="461" height="88" fill="black">
<rect fill="white" x="-1" y="-1" width="461" height="88"/>
<path d="M29.082 85.904C17.896 85.904 8.45533 83.8413 0.76 79.716L6.71 61.271C14.8813 64.2063 22.18 65.674 28.606 65.674C32.0967 65.674 34.6353 65.2773 36.222 64.484C37.888 63.6113 38.721 62.342 38.721 60.676C38.721 59.5653 38.2847 58.6133 37.412 57.82C36.5393 56.9473 34.794 55.9953 32.176 54.964C29.558 53.9327 25.631 52.6633 20.395 51.156C13.969 49.252 8.971 46.158 5.401 41.874C1.831 37.5107 0.0460002 32.5127 0.0460002 26.88C0.0460002 18.1533 2.902 11.5687 8.614 7.126C14.4053 2.604 22.18 0.342999 31.938 0.342999C37.0153 0.342999 42.0133 0.898332 46.932 2.009C51.8507 3.04033 56.214 4.58733 60.022 6.65L53.596 24.619C49.1533 23.1117 45.266 22.0407 41.934 21.406C38.6813 20.692 35.508 20.335 32.414 20.335C27.178 20.335 24.56 21.763 24.56 24.619C24.56 26.047 25.393 27.2767 27.059 28.308C28.8043 29.26 32.3347 30.4897 37.65 31.997C45.98 34.2183 52.287 37.6297 56.571 42.231C60.855 46.753 62.997 52.1873 62.997 58.534C62.997 67.34 60.141 74.123 54.429 78.883C48.717 83.5637 40.268 85.904 29.082 85.904ZM113.905 85.904C105.337 85.904 97.7208 84.0793 91.0568 80.43C84.4722 76.7807 79.3155 71.743 75.5868 65.317C71.9375 58.8117 70.1128 51.4337 70.1128 43.183C70.1128 34.853 71.9375 27.4353 75.5868 20.93C79.3155 14.4247 84.4722 9.387 91.0568 5.817C97.7208 2.16767 105.337 0.342999 113.905 0.342999C122.473 0.342999 130.049 2.16767 136.634 5.817C143.298 9.387 148.454 14.4247 152.104 20.93C155.832 27.356 157.697 34.7737 157.697 43.183C157.697 51.4337 155.832 58.8117 152.104 65.317C148.454 71.743 143.298 76.7807 136.634 80.43C129.97 84.0793 122.393 85.904 113.905 85.904ZM113.905 64.246C118.903 64.246 122.988 62.3023 126.162 58.415C129.414 54.5277 131.041 49.4107 131.041 43.064C131.041 38.8593 130.287 35.1307 128.78 31.878C127.352 28.546 125.329 25.9677 122.711 24.143C120.093 22.239 117.118 21.287 113.786 21.287C110.533 21.287 107.598 22.239 104.98 24.143C102.362 25.9677 100.339 28.546 98.9108 31.878C97.4828 35.1307 96.7688 38.8593 96.7688 43.064C96.7688 49.4107 98.3555 54.5277 101.529 58.415C104.702 62.3023 108.827 64.246 113.905 64.246ZM208.849 85.904C200.995 85.904 193.974 84.3967 187.786 81.382C181.677 78.3673 176.917 74.1627 173.506 68.768C170.095 63.294 168.389 57.0663 168.389 50.085V2.128H195.283V50.085C195.283 54.845 196.433 58.415 198.734 60.795C201.035 63.175 204.407 64.365 208.849 64.365C213.292 64.365 216.663 63.175 218.964 60.795C221.265 58.3357 222.415 54.7657 222.415 50.085V2.128H249.309V50.085C249.309 57.0663 247.604 63.294 244.192 68.768C240.781 74.1627 235.981 78.3673 229.793 81.382C223.685 84.3967 216.703 85.904 208.849 85.904ZM326.047 85.904C311.132 85.904 302.009 79.002 298.677 65.198L295.702 52.941H290.109V84H264.048V2.128H300.105C306.927 2.128 312.917 3.15933 318.074 5.22199C323.31 7.20533 327.356 10.0217 330.212 13.671C333.068 17.3203 334.496 21.525 334.496 26.285C334.496 31.6003 333.187 36.0827 330.569 39.732C328.03 43.302 324.063 46.2373 318.669 48.538C319.224 51.5527 319.859 54.2897 320.573 56.749C321.525 59.7637 322.834 61.866 324.5 63.056C326.166 64.246 328.585 64.841 331.759 64.841C332.869 64.841 334.615 64.6823 336.995 64.365V83.762C333.266 85.19 329.617 85.904 326.047 85.904ZM294.631 36.281C300.501 36.281 304.627 35.6463 307.007 34.377C309.466 33.0283 310.696 30.7673 310.696 27.594C310.696 24.8967 309.704 22.953 307.721 21.763C305.737 20.4937 302.604 19.859 298.32 19.859H290.109V36.281H294.631ZM347.138 2.128H374.627V84H347.138V2.128ZM405.13 43.302L383.115 2.128H410.128L419.767 22.834L429.406 2.128H456.895L434.761 43.302L457.609 84H430.12L419.767 63.651L409.414 84H382.401L405.13 43.302Z"/>
</mask>
<path d="M29.082 85.904C17.896 85.904 8.45533 83.8413 0.76 79.716L6.71 61.271C14.8813 64.2063 22.18 65.674 28.606 65.674C32.0967 65.674 34.6353 65.2773 36.222 64.484C37.888 63.6113 38.721 62.342 38.721 60.676C38.721 59.5653 38.2847 58.6133 37.412 57.82C36.5393 56.9473 34.794 55.9953 32.176 54.964C29.558 53.9327 25.631 52.6633 20.395 51.156C13.969 49.252 8.971 46.158 5.401 41.874C1.831 37.5107 0.0460002 32.5127 0.0460002 26.88C0.0460002 18.1533 2.902 11.5687 8.614 7.126C14.4053 2.604 22.18 0.342999 31.938 0.342999C37.0153 0.342999 42.0133 0.898332 46.932 2.009C51.8507 3.04033 56.214 4.58733 60.022 6.65L53.596 24.619C49.1533 23.1117 45.266 22.0407 41.934 21.406C38.6813 20.692 35.508 20.335 32.414 20.335C27.178 20.335 24.56 21.763 24.56 24.619C24.56 26.047 25.393 27.2767 27.059 28.308C28.8043 29.26 32.3347 30.4897 37.65 31.997C45.98 34.2183 52.287 37.6297 56.571 42.231C60.855 46.753 62.997 52.1873 62.997 58.534C62.997 67.34 60.141 74.123 54.429 78.883C48.717 83.5637 40.268 85.904 29.082 85.904ZM113.905 85.904C105.337 85.904 97.7208 84.0793 91.0568 80.43C84.4722 76.7807 79.3155 71.743 75.5868 65.317C71.9375 58.8117 70.1128 51.4337 70.1128 43.183C70.1128 34.853 71.9375 27.4353 75.5868 20.93C79.3155 14.4247 84.4722 9.387 91.0568 5.817C97.7208 2.16767 105.337 0.342999 113.905 0.342999C122.473 0.342999 130.049 2.16767 136.634 5.817C143.298 9.387 148.454 14.4247 152.104 20.93C155.832 27.356 157.697 34.7737 157.697 43.183C157.697 51.4337 155.832 58.8117 152.104 65.317C148.454 71.743 143.298 76.7807 136.634 80.43C129.97 84.0793 122.393 85.904 113.905 85.904ZM113.905 64.246C118.903 64.246 122.988 62.3023 126.162 58.415C129.414 54.5277 131.041 49.4107 131.041 43.064C131.041 38.8593 130.287 35.1307 128.78 31.878C127.352 28.546 125.329 25.9677 122.711 24.143C120.093 22.239 117.118 21.287 113.786 21.287C110.533 21.287 107.598 22.239 104.98 24.143C102.362 25.9677 100.339 28.546 98.9108 31.878C97.4828 35.1307 96.7688 38.8593 96.7688 43.064C96.7688 49.4107 98.3555 54.5277 101.529 58.415C104.702 62.3023 108.827 64.246 113.905 64.246ZM208.849 85.904C200.995 85.904 193.974 84.3967 187.786 81.382C181.677 78.3673 176.917 74.1627 173.506 68.768C170.095 63.294 168.389 57.0663 168.389 50.085V2.128H195.283V50.085C195.283 54.845 196.433 58.415 198.734 60.795C201.035 63.175 204.407 64.365 208.849 64.365C213.292 64.365 216.663 63.175 218.964 60.795C221.265 58.3357 222.415 54.7657 222.415 50.085V2.128H249.309V50.085C249.309 57.0663 247.604 63.294 244.192 68.768C240.781 74.1627 235.981 78.3673 229.793 81.382C223.685 84.3967 216.703 85.904 208.849 85.904ZM326.047 85.904C311.132 85.904 302.009 79.002 298.677 65.198L295.702 52.941H290.109V84H264.048V2.128H300.105C306.927 2.128 312.917 3.15933 318.074 5.22199C323.31 7.20533 327.356 10.0217 330.212 13.671C333.068 17.3203 334.496 21.525 334.496 26.285C334.496 31.6003 333.187 36.0827 330.569 39.732C328.03 43.302 324.063 46.2373 318.669 48.538C319.224 51.5527 319.859 54.2897 320.573 56.749C321.525 59.7637 322.834 61.866 324.5 63.056C326.166 64.246 328.585 64.841 331.759 64.841C332.869 64.841 334.615 64.6823 336.995 64.365V83.762C333.266 85.19 329.617 85.904 326.047 85.904ZM294.631 36.281C300.501 36.281 304.627 35.6463 307.007 34.377C309.466 33.0283 310.696 30.7673 310.696 27.594C310.696 24.8967 309.704 22.953 307.721 21.763C305.737 20.4937 302.604 19.859 298.32 19.859H290.109V36.281H294.631ZM347.138 2.128H374.627V84H347.138V2.128ZM405.13 43.302L383.115 2.128H410.128L419.767 22.834L429.406 2.128H456.895L434.761 43.302L457.609 84H430.12L419.767 63.651L409.414 84H382.401L405.13 43.302Z" fill="#ECB9ED"/>
<path d="M0.76 79.716L-0.191708 79.409L-0.447874 80.2031L0.287527 80.5973L0.76 79.716ZM6.71 61.271L7.04807 60.3299L6.07554 59.9805L5.75829 60.964L6.71 61.271ZM36.222 64.484L36.6692 65.3784L36.6777 65.3742L36.686 65.3698L36.222 64.484ZM37.412 57.82L36.7049 58.5271L36.7217 58.5439L36.7393 58.5599L37.412 57.82ZM32.176 54.964L32.5425 54.0336L32.5425 54.0336L32.176 54.964ZM20.395 51.156L20.1109 52.1148L20.1184 52.117L20.395 51.156ZM5.401 41.874L4.62701 42.5073L4.63278 42.5142L5.401 41.874ZM8.614 7.126L9.22794 7.91535L9.22944 7.91418L8.614 7.126ZM46.932 2.009L46.7117 2.98444L46.7193 2.98614L46.7268 2.98772L46.932 2.009ZM60.022 6.65L60.9636 6.98673L61.2524 6.17918L60.4983 5.7707L60.022 6.65ZM53.596 24.619L53.2747 25.566L54.2063 25.8821L54.5376 24.9557L53.596 24.619ZM41.934 21.406L41.7196 22.3827L41.7332 22.3857L41.7469 22.3883L41.934 21.406ZM27.059 28.308L26.5326 29.1583L26.556 29.1727L26.5801 29.1859L27.059 28.308ZM37.65 31.997L37.3772 32.9591L37.3847 32.9612L37.3923 32.9632L37.65 31.997ZM56.571 42.231L55.8391 42.9124L55.845 42.9187L56.571 42.231ZM54.429 78.883L55.0628 79.6565L55.0692 79.6512L54.429 78.883ZM29.082 84.904C18.0157 84.904 8.74733 82.8632 1.23247 78.8347L0.287527 80.5973C8.16334 84.8194 17.7763 86.904 29.082 86.904V84.904ZM1.71171 80.023L7.66171 61.578L5.75829 60.964L-0.191708 79.409L1.71171 80.023ZM6.37193 62.2121C14.6161 65.1736 22.0322 66.674 28.606 66.674V64.674C22.3278 64.674 15.1465 63.239 7.04807 60.3299L6.37193 62.2121ZM28.606 66.674C32.1296 66.674 34.865 66.2806 36.6692 65.3784L35.7748 63.5896C34.4057 64.2741 32.0637 64.674 28.606 64.674V66.674ZM36.686 65.3698C37.6341 64.8732 38.4027 64.2332 38.9323 63.4262C39.4661 62.6127 39.721 61.6842 39.721 60.676H37.721C37.721 61.3338 37.5594 61.8729 37.2602 62.3288C36.9568 62.7912 36.4759 63.2221 35.758 63.5982L36.686 65.3698ZM39.721 60.676C39.721 59.2645 39.1513 58.0497 38.0847 57.0801L36.7393 58.5599C37.4181 59.177 37.721 59.8661 37.721 60.676H39.721ZM38.1191 57.1129C37.0867 56.0805 35.1657 55.067 32.5425 54.0336L31.8095 55.8944C34.4223 56.9237 35.992 57.8142 36.7049 58.5271L38.1191 57.1129ZM32.5425 54.0336C29.8792 52.9844 25.9155 51.7046 20.6716 50.195L20.1184 52.117C25.3465 53.622 29.2368 54.8809 31.8095 55.8944L32.5425 54.0336ZM20.6791 50.1972C14.4036 48.3378 9.58922 45.3378 6.16922 41.2338L4.63278 42.5142C8.35278 46.9782 13.5344 50.1662 20.1109 52.1148L20.6791 50.1972ZM6.17496 41.2408C2.75099 37.0559 1.046 32.2816 1.046 26.88H-0.954C-0.954 32.7437 0.911008 37.9654 4.62704 42.5072L6.17496 41.2408ZM1.046 26.88C1.046 18.3911 3.81048 12.1289 9.22794 7.91535L8.00006 6.33664C1.99352 11.0084 -0.954 17.9156 -0.954 26.88H1.046ZM9.22944 7.91418C14.7949 3.56852 22.3299 1.343 31.938 1.343V-0.657001C22.0301 -0.657001 14.0157 1.63948 7.99857 6.33781L9.22944 7.91418ZM31.938 1.343C36.9417 1.343 41.8659 1.89021 46.7117 2.98444L47.1523 1.03356C42.1608 -0.0935441 37.0889 -0.657001 31.938 -0.657001V1.343ZM46.7268 2.98772C51.5656 4.0023 55.8352 5.51939 59.5457 7.52929L60.4983 5.7707C56.5929 3.65526 52.1358 2.07836 47.1372 1.03028L46.7268 2.98772ZM59.0804 6.31326L52.6544 24.2823L54.5376 24.9557L60.9636 6.98673L59.0804 6.31326ZM53.9173 23.672C49.4461 22.155 45.5121 21.0696 42.1211 20.4237L41.7469 22.3883C45.0199 23.0118 48.8606 24.0683 53.2747 25.566L53.9173 23.672ZM42.1484 20.4293C38.8306 19.701 35.5853 19.335 32.414 19.335V21.335C35.4307 21.335 38.532 21.683 41.7196 22.3827L42.1484 20.4293ZM32.414 19.335C29.7378 19.335 27.5733 19.6943 26.0446 20.5281C25.2653 20.9532 24.6321 21.5123 24.1976 22.2233C23.7617 22.9365 23.56 23.7469 23.56 24.619H25.56C25.56 24.0631 25.6855 23.624 25.9042 23.2662C26.1242 22.9062 26.4727 22.5728 27.0024 22.2839C28.0917 21.6897 29.8542 21.335 32.414 21.335V19.335ZM23.56 24.619C23.56 26.5158 24.694 28.0201 26.5326 29.1583L27.5854 27.4577C26.092 26.5333 25.56 25.5782 25.56 24.619H23.56ZM26.5801 29.1859C28.4382 30.1994 32.0742 31.4552 37.3772 32.9591L37.9228 31.0349C32.5952 29.5241 29.1704 28.3206 27.5379 27.4301L26.5801 29.1859ZM37.3923 32.9632C45.6057 35.1535 51.7225 38.4909 55.8391 42.9124L57.3029 41.5496C52.8515 36.7685 46.3543 33.2832 37.9077 31.0308L37.3923 32.9632ZM55.845 42.9187C59.9494 47.2511 61.997 52.4378 61.997 58.534H63.997C63.997 51.9368 61.7606 46.2549 57.297 41.5433L55.845 42.9187ZM61.997 58.534C61.997 67.1038 59.23 73.5804 53.7888 78.1148L55.0692 79.6512C61.052 74.6656 63.997 67.5762 63.997 58.534H61.997ZM53.7952 78.1095C48.3337 82.5849 40.1508 84.904 29.082 84.904V86.904C40.3852 86.904 49.1003 84.5424 55.0628 79.6565L53.7952 78.1095ZM91.0568 80.43L90.5721 81.3047L90.5765 81.3071L91.0568 80.43ZM75.5868 65.317L74.7147 65.8063L74.7182 65.8126L74.7219 65.8189L75.5868 65.317ZM75.5868 20.93L74.7192 20.4327L74.7147 20.4407L75.5868 20.93ZM91.0568 5.817L91.5335 6.69611L91.5371 6.6941L91.0568 5.817ZM136.634 5.817L136.149 6.69165L136.155 6.69511L136.162 6.69848L136.634 5.817ZM152.104 20.93L151.232 21.4192L151.235 21.4256L151.239 21.4319L152.104 20.93ZM152.104 65.317L151.236 64.8197L151.234 64.8232L152.104 65.317ZM136.634 80.43L137.114 81.3071L137.114 81.3071L136.634 80.43ZM126.162 58.415L125.395 57.7732L125.387 57.7826L126.162 58.415ZM128.78 31.878L127.861 32.2719L127.866 32.2853L127.873 32.2985L128.78 31.878ZM122.711 24.143L122.123 24.9517L122.131 24.9576L122.139 24.9634L122.711 24.143ZM104.98 24.143L105.552 24.9634L105.56 24.9576L105.568 24.9517L104.98 24.143ZM98.9108 31.878L99.8265 32.28L99.83 32.2719L98.9108 31.878ZM113.905 84.904C105.483 84.904 98.0359 83.1118 91.5371 79.5529L90.5765 81.3071C97.4057 85.0469 105.191 86.904 113.905 86.904V84.904ZM91.5416 79.5553C85.1128 75.9924 80.0885 71.0826 76.4518 64.8151L74.7219 65.8189C78.5425 72.4034 83.8315 77.5689 90.5721 81.3047L91.5416 79.5553ZM76.459 64.8277C72.9021 58.4873 71.1128 51.2809 71.1128 43.183H69.1128C69.1128 51.5864 70.9729 59.1361 74.7147 65.8063L76.459 64.8277ZM71.1128 43.183C71.1128 35.0039 72.9029 27.7583 76.459 21.4192L74.7147 20.4407C70.9721 27.1124 69.1128 34.7021 69.1128 43.183H71.1128ZM76.4544 21.4273C80.0908 15.0829 85.1122 10.1775 91.5335 6.69611L90.5802 4.93789C83.8321 8.5965 78.5401 13.7665 74.7192 20.4327L76.4544 21.4273ZM91.5371 6.6941C98.0359 3.13524 105.483 1.343 113.905 1.343V-0.657001C105.191 -0.657001 97.4057 1.20009 90.5765 4.9399L91.5371 6.6941ZM113.905 1.343C122.327 1.343 129.732 3.13532 136.149 6.69165L137.119 4.94235C130.366 1.20001 122.619 -0.657001 113.905 -0.657001V1.343ZM136.162 6.69848C142.66 10.1798 147.677 15.0825 151.232 21.4192L152.976 20.4407C149.232 13.7669 143.936 8.5942 137.106 4.93552L136.162 6.69848ZM151.239 21.4319C154.868 27.6861 156.697 34.9262 156.697 43.183H158.697C158.697 34.6211 156.797 27.0258 152.969 20.4281L151.239 21.4319ZM156.697 43.183C156.697 51.2772 154.87 58.4806 151.236 64.8197L152.971 65.8143C156.795 59.1427 158.697 51.5902 158.697 43.183H156.697ZM151.234 64.8232C147.679 71.0831 142.66 75.9901 136.154 79.5529L137.114 81.3071C143.936 77.5712 149.23 72.4029 152.973 65.8108L151.234 64.8232ZM136.154 79.5529C129.653 83.1125 122.246 84.904 113.905 84.904V86.904C122.541 86.904 130.286 85.0462 137.114 81.3071L136.154 79.5529ZM113.905 65.246C119.205 65.246 123.574 63.1663 126.936 59.0474L125.387 57.7826C122.403 61.4384 118.601 63.246 113.905 63.246V65.246ZM126.929 59.0567C130.367 54.9477 132.041 49.5844 132.041 43.064H130.041C130.041 49.2369 128.462 54.1076 125.395 57.7733L126.929 59.0567ZM132.041 43.064C132.041 38.739 131.265 34.8628 129.687 31.4575L127.873 32.2985C129.309 35.3985 130.041 38.9797 130.041 43.064H132.041ZM129.699 31.4841C128.208 28.0042 126.074 25.2681 123.283 23.3226L122.139 24.9634C124.584 26.6672 126.496 29.0878 127.861 32.2719L129.699 31.4841ZM123.299 23.3343C120.505 21.3021 117.323 20.287 113.786 20.287V22.287C116.913 22.287 119.681 23.1759 122.123 24.9517L123.299 23.3343ZM113.786 20.287C110.323 20.287 107.181 21.3053 104.392 23.3343L105.568 24.9517C108.014 23.1727 110.743 22.287 113.786 22.287V20.287ZM104.408 23.3226C101.617 25.2681 99.4831 28.0042 97.9917 31.4841L99.83 32.2719C101.195 29.0878 103.107 26.6672 105.552 24.9634L104.408 23.3226ZM97.9952 31.476C96.5023 34.8765 95.7688 38.746 95.7688 43.064H97.7688C97.7688 38.9727 98.4634 35.3849 99.8265 32.28L97.9952 31.476ZM95.7688 43.064C95.7688 49.5788 97.4 54.9385 100.754 59.0474L102.303 57.7826C99.311 54.1168 97.7688 49.2426 97.7688 43.064H95.7688ZM100.754 59.0474C104.12 63.1705 108.531 65.246 113.905 65.246V63.246C109.124 63.246 105.284 61.4341 102.303 57.7826L100.754 59.0474ZM187.786 81.382L187.344 82.2788L187.348 82.281L187.786 81.382ZM173.506 68.768L172.657 69.2969L172.661 69.3025L173.506 68.768ZM168.389 2.128V1.128H167.389V2.128H168.389ZM195.283 2.128H196.283V1.128H195.283V2.128ZM198.734 60.795L198.015 61.49L198.015 61.49L198.734 60.795ZM218.964 60.795L219.683 61.49L219.689 61.4841L219.694 61.4782L218.964 60.795ZM222.415 2.128V1.128H221.415V2.128H222.415ZM249.309 2.128H250.309V1.128H249.309V2.128ZM244.192 68.768L245.037 69.3025L245.041 69.2969L244.192 68.768ZM229.793 81.382L229.355 80.483L229.351 80.4853L229.793 81.382ZM208.849 84.904C201.125 84.904 194.258 83.4224 188.224 80.483L187.348 82.281C193.691 85.3709 200.865 86.904 208.849 86.904V84.904ZM188.229 80.4853C182.273 77.5463 177.658 73.4622 174.351 68.2335L172.661 69.3025C176.177 74.8632 181.082 79.1884 187.344 82.2787L188.229 80.4853ZM174.355 68.2391C171.051 62.9368 169.389 56.8954 169.389 50.085H167.389C167.389 57.2373 169.139 63.6511 172.657 69.2969L174.355 68.2391ZM169.389 50.085V2.128H167.389V50.085H169.389ZM168.389 3.128H195.283V1.128H168.389V3.128ZM194.283 2.128V50.085H196.283V2.128H194.283ZM194.283 50.085C194.283 54.9908 195.468 58.8554 198.015 61.49L199.453 60.1C197.399 57.9746 196.283 54.6992 196.283 50.085H194.283ZM198.015 61.49C200.562 64.1246 204.232 65.365 208.849 65.365V63.365C204.581 63.365 201.508 62.2254 199.453 60.1L198.015 61.49ZM208.849 65.365C213.467 65.365 217.136 64.1246 219.683 61.49L218.245 60.1C216.191 62.2254 213.117 63.365 208.849 63.365V65.365ZM219.694 61.4782C222.226 58.7718 223.415 54.9197 223.415 50.085H221.415C221.415 54.6116 220.303 57.8996 218.234 60.1118L219.694 61.4782ZM223.415 50.085V2.128H221.415V50.085H223.415ZM222.415 3.128H249.309V1.128H222.415V3.128ZM248.309 2.128V50.085H250.309V2.128H248.309ZM248.309 50.085C248.309 56.8954 246.648 62.9368 243.343 68.2391L245.041 69.2969C248.559 63.6511 250.309 57.2373 250.309 50.085H248.309ZM243.347 68.2335C240.043 73.4589 235.39 77.5431 229.355 80.483L230.231 82.281C236.572 79.1916 241.519 74.8664 245.037 69.3025L243.347 68.2335ZM229.351 80.4853C223.399 83.4223 216.573 84.904 208.849 84.904V86.904C216.833 86.904 223.97 85.371 230.236 82.2787L229.351 80.4853ZM298.677 65.198L299.649 64.9634L299.648 64.9621L298.677 65.198ZM295.702 52.941L296.673 52.7051L296.488 51.941H295.702V52.941ZM290.109 52.941V51.941H289.109V52.941H290.109ZM290.109 84V85H291.109V84H290.109ZM264.048 84H263.048V85H264.048V84ZM264.048 2.128V1.128H263.048V2.128H264.048ZM318.074 5.22199L317.702 6.15047L317.711 6.15389L317.719 6.15715L318.074 5.22199ZM330.212 13.671L330.999 13.0547L330.999 13.0547L330.212 13.671ZM330.569 39.732L329.756 39.1491L329.754 39.1525L330.569 39.732ZM318.669 48.538L318.276 47.6182L317.54 47.9321L317.685 48.7192L318.669 48.538ZM320.573 56.749L319.612 57.0278L319.615 57.039L319.619 57.0501L320.573 56.749ZM324.5 63.056L323.918 63.8697L323.918 63.8697L324.5 63.056ZM336.995 64.365H337.995V63.2228L336.862 63.3738L336.995 64.365ZM336.995 83.762L337.352 84.6959L337.995 84.4498V83.762H336.995ZM307.007 34.377L307.477 35.2594L307.487 35.2538L307.007 34.377ZM307.721 21.763L307.181 22.6053L307.194 22.6131L307.206 22.6205L307.721 21.763ZM290.109 19.859V18.859H289.109V19.859H290.109ZM290.109 36.281H289.109V37.281H290.109V36.281ZM326.047 84.904C318.741 84.904 312.963 83.2146 308.621 79.93C304.285 76.6495 301.274 71.6965 299.649 64.9634L297.704 65.4326C299.411 72.5035 302.628 77.9035 307.415 81.525C312.196 85.1424 318.438 86.904 326.047 86.904V84.904ZM299.648 64.9621L296.673 52.7051L294.73 53.1769L297.705 65.4339L299.648 64.9621ZM295.702 51.941H290.109V53.941H295.702V51.941ZM289.109 52.941V84H291.109V52.941H289.109ZM290.109 83H264.048V85H290.109V83ZM265.048 84V2.128H263.048V84H265.048ZM264.048 3.128H300.105V1.128H264.048V3.128ZM300.105 3.128C306.828 3.128 312.687 4.1445 317.702 6.15047L318.445 4.29352C313.146 2.17416 307.026 1.128 300.105 1.128V3.128ZM317.719 6.15715C322.82 8.08929 326.702 10.8092 329.424 14.2873L330.999 13.0547C328.009 9.23414 323.799 6.32136 318.428 4.28683L317.719 6.15715ZM329.424 14.2873C332.138 17.7556 333.496 21.7418 333.496 26.285H335.496C335.496 21.3082 333.997 16.8851 330.999 13.0547L329.424 14.2873ZM333.496 26.285C333.496 31.4306 332.231 35.6991 329.756 39.1491L331.381 40.3149C334.142 36.4662 335.496 31.77 335.496 26.285H333.496ZM329.754 39.1525C327.352 42.5295 323.557 45.366 318.276 47.6182L319.061 49.4578C324.569 47.1086 328.708 44.0745 331.383 40.3115L329.754 39.1525ZM317.685 48.7192C318.245 51.7606 318.887 54.5308 319.612 57.0278L321.533 56.4702C320.83 54.0485 320.202 51.3448 319.652 48.3568L317.685 48.7192ZM319.619 57.0501C320.603 60.1658 322.003 62.5017 323.918 63.8697L325.081 62.2423C323.664 61.2303 322.446 59.3615 321.526 56.4479L319.619 57.0501ZM323.918 63.8697C325.824 65.2309 328.484 65.841 331.759 65.841V63.841C328.687 63.841 326.507 63.2611 325.081 62.2423L323.918 63.8697ZM331.759 65.841C332.94 65.841 334.741 65.6743 337.127 65.3562L336.862 63.3738C334.488 63.6904 332.798 63.841 331.759 63.841V65.841ZM335.995 64.365V83.762H337.995V64.365H335.995ZM336.637 82.8281C333.009 84.2176 329.481 84.904 326.047 84.904V86.904C329.752 86.904 333.523 86.1624 337.352 84.6959L336.637 82.8281ZM294.631 37.281C300.515 37.281 304.861 36.6545 307.477 35.2593L306.536 33.4946C304.392 34.6381 300.487 35.281 294.631 35.281V37.281ZM307.487 35.2538C310.315 33.7032 311.696 31.0742 311.696 27.594H309.696C309.696 30.4605 308.617 32.3534 306.526 33.5002L307.487 35.2538ZM311.696 27.594C311.696 24.6144 310.574 22.3091 308.235 20.9055L307.206 22.6205C308.833 23.5969 309.696 25.1789 309.696 27.594H311.696ZM308.26 20.9207C306.031 19.4942 302.66 18.859 298.32 18.859V20.859C302.547 20.859 305.444 21.4932 307.181 22.6053L308.26 20.9207ZM298.32 18.859H290.109V20.859H298.32V18.859ZM289.109 19.859V36.281H291.109V19.859H289.109ZM290.109 37.281H294.631V35.281H290.109V37.281ZM347.138 2.128V1.128H346.138V2.128H347.138ZM374.627 2.128H375.627V1.128H374.627V2.128ZM374.627 84V85H375.627V84H374.627ZM347.138 84H346.138V85H347.138V84ZM347.138 3.128H374.627V1.128H347.138V3.128ZM373.627 2.128V84H375.627V2.128H373.627ZM374.627 83H347.138V85H374.627V83ZM348.138 84V2.128H346.138V84H348.138ZM405.13 43.302L406.003 43.7896L406.27 43.3124L406.012 42.8305L405.13 43.302ZM383.115 2.128V1.128H381.447L382.234 2.59951L383.115 2.128ZM410.128 2.128L411.035 1.70597L410.766 1.128H410.128V2.128ZM419.767 22.834L418.861 23.256L419.767 25.2035L420.674 23.256L419.767 22.834ZM429.406 2.128V1.128H428.769L428.5 1.70597L429.406 2.128ZM456.895 2.128L457.776 2.60149L458.568 1.128H456.895V2.128ZM434.761 43.302L433.881 42.8285L433.62 43.3124L433.889 43.7915L434.761 43.302ZM457.609 84V85H459.318L458.481 83.5105L457.609 84ZM430.12 84L429.229 84.4535L429.507 85H430.12V84ZM419.767 63.651L420.659 63.1975L419.767 61.4457L418.876 63.1975L419.767 63.651ZM409.414 84V85H410.028L410.306 84.4535L409.414 84ZM382.401 84L381.528 83.5124L380.698 85H382.401V84ZM406.012 42.8305L383.997 1.65648L382.234 2.59951L404.249 43.7735L406.012 42.8305ZM383.115 3.128H410.128V1.128H383.115V3.128ZM409.222 2.55003L418.861 23.256L420.674 22.412L411.035 1.70597L409.222 2.55003ZM420.674 23.256L430.313 2.55003L428.5 1.70597L418.861 22.412L420.674 23.256ZM429.406 3.128H456.895V1.128H429.406V3.128ZM456.015 1.6545L433.881 42.8285L435.642 43.7755L457.776 2.60149L456.015 1.6545ZM433.889 43.7915L456.737 84.4895L458.481 83.5105L435.633 42.8125L433.889 43.7915ZM457.609 83H430.12V85H457.609V83ZM431.012 83.5465L420.659 63.1975L418.876 64.1045L429.229 84.4535L431.012 83.5465ZM418.876 63.1975L408.523 83.5465L410.306 84.4535L420.659 64.1045L418.876 63.1975ZM409.414 83H382.401V85H409.414V83ZM383.274 84.4876L406.003 43.7896L404.257 42.8144L381.528 83.5124L383.274 84.4876Z" fill="black" mask="url(#path-1-outside-1_2_2)"/>
</svg>
